<?xml version="1.0" standalone="no"?>
<!DOCTYPE svg PUBLIC "-//W3C//DTD SVG 20010904//EN"
 "http://www.w3.org/TR/2001/REC-SVG-20010904/DTD/svg10.dtd">
<svg version="1.0" xmlns="http://www.w3.org/2000/svg"
 width="1275.000000pt" height="1651.000000pt" viewBox="0 0 1275.000000 1651.000000"
 preserveAspectRatio="xMidYMid meet">
<metadata>
Created by potrace 1.16, written by Peter Selinger 2001-2019
</metadata>
<g transform="translate(0.000000,1651.000000) scale(0.100000,-0.100000)"
fill="#000000" stroke="none">
<path d="M1472 15303 c14 -3 18 -18 20 -71 3 -67 3 -67 33 -69 27 -2 28 -2 8
7 -21 8 -23 16 -23 75 0 65 0 65 -27 64 -17 -1 -21 -3 -11 -6z"/>
<path d="M1200 15230 c0 -40 4 -70 10 -70 6 0 10 14 10 30 0 25 4 30 25 30 21
0 25 -5 25 -30 0 -16 5 -30 10 -30 6 0 10 30 10 70 0 40 -4 70 -10 70 -5 0
-10 -13 -10 -30 0 -25 -4 -30 -25 -30 -21 0 -25 5 -25 30 0 17 -4 30 -10 30
-6 0 -10 -30 -10 -70z"/>
<path d="M1328 15245 c-8 -18 -9 -35 -2 -53 8 -22 15 -27 44 -27 29 0 36 5 44
27 15 42 -6 78 -44 78 -23 0 -33 -6 -42 -25z m60 3 c30 -30 -1 -94 -33 -68
-25 20 -13 80 15 80 3 0 11 -5 18 -12z"/>
<path d="M1585 15259 c-4 -6 -4 -13 0 -17 3 -3 10 0 15 7 8 14 40 9 40 -7 0
-4 -15 -12 -32 -17 -26 -8 -33 -15 -33 -35 0 -24 3 -25 55 -26 30 -1 49 1 43
3 -7 3 -13 20 -13 38 0 18 -3 40 -6 49 -7 18 -59 22 -69 5z m55 -58 c0 -14
-28 -33 -40 -26 -20 12 -10 35 15 35 14 0 25 -4 25 -9z"/>
<path d="M1710 15256 c-15 -19 -7 -20 20 -3 17 10 22 9 30 -3 5 -8 6 -16 2
-17 -4 -1 -19 -4 -34 -7 -22 -5 -28 -12 -28 -32 0 -29 25 -42 51 -25 12 7 19
7 19 1 0 -5 7 -10 16 -10 12 0 14 3 6 13 -6 7 -12 30 -14 52 -3 35 -7 40 -29
43 -14 2 -31 -4 -39 -12z m50 -66 c-6 -11 -17 -20 -25 -20 -8 0 -15 9 -15 20
0 15 7 20 25 20 23 0 24 -2 15 -20z"/>
<path d="M1835 15259 c-4 -6 -4 -13 0 -17 3 -3 10 0 15 7 8 14 40 9 40 -7 0
-4 -15 -12 -32 -17 -26 -8 -33 -15 -33 -35 0 -24 3 -25 55 -26 30 -1 49 1 43
3 -7 3 -13 20 -13 38 0 18 -3 40 -6 49 -7 18 -59 22 -69 5z m55 -58 c0 -14
-28 -33 -40 -26 -20 12 -10 35 15 35 14 0 25 -4 25 -9z"/>
<path d="M1960 15256 c-15 -19 -7 -20 20 -3 17 10 22 9 30 -3 5 -8 6 -16 2
-17 -4 -1 -19 -4 -34 -7 -22 -5 -28 -12 -28 -32 0 -29 25 -42 51 -25 12 7 19
7 19 1 0 -5 7 -10 16 -10 12 0 14 3 6 13 -6 7 -12 30 -14 52 -3 35 -7 40 -29
43 -14 2 -31 -4 -39 -12z m50 -66 c-6 -11 -17 -20 -25 -20 -8 0 -15 9 -15 20
0 15 7 20 25 20 23 0 24 -2 15 -20z"/>
<path d="M2085 15259 c-4 -6 -4 -13 0 -17 3 -3 10 0 15 7 8 14 40 9 40 -7 0
-4 -15 -12 -32 -17 -26 -8 -33 -15 -33 -35 0 -24 3 -25 55 -26 30 -1 49 1 43
3 -7 3 -13 20 -13 38 0 18 -3 40 -6 49 -7 18 -59 22 -69 5z m55 -58 c0 -14
-28 -33 -40 -26 -20 12 -10 35 15 35 14 0 25 -4 25 -9z"/>
</g>
</svg>
